ffmpeg started on 2025-05-02 at 14:32:33
Report written to "D:\Convert\FFMetrics\reports\psnr_report-6.txt"
Log level: 32
Command line:
ffmpeg -hide_banner -nostdin -i "G:\\\xc0\xed\xe8\xec\xe5\\\xce\xed\xe3\xee\xe8\xed\xe3\xe8\\!_35_\xcb\xe5\xf2\xee_2024\\JamClub\\\xcf\xee\xf7\xe5\xec\xf3 \xe2\xf1\xe5 \xe7\xe0\xe1\xfb\xeb\xe8 \xec\xee\xe9 \xec\xe8\xf0\\JamClub_Naze_Boku_no_Sekai_o_Dare_mo_Oboeteinai_no_ka_12_1080p_HEVC.mkv" -i "G:\\\xc0\xed\xe8\xec\xe5\\\xce\xed\xe3\xee\xe8\xed\xe3\xe8\\!_35_\xcb\xe5\xf2\xee_2024\\JamClub\\\xcf\xee\xf7\xe5\xec\xf3 \xe2\xf1\xe5 \xe7\xe0\xe1\xfb\xeb\xe8 \xec\xee\xe9 \xec\xe8\xf0\\JamClub_Naze_Boku_no_Sekai_o_Dare_mo_Oboeteinai_no_ka_12_1080p.mp4" -lavfi "[0:v]settb=AVTB,setpts=PTS-STARTPTS,format=pix_fmts=yuv420p10,fps=24000/1001,scale=1920:1080:flags=bicubic[main];[1:v]settb=AVTB,setpts=PTS-STARTPTS,format=pix_fmts=yuv420p,fps=24000/1001,scale=1920:1080:flags=bicubic[ref];[main][ref]psnr=eof_action=endall:stats_file='D\\:/Convert/FFMetrics/logs/psnr_logfile-6.txt'" -f null -
Input #0, matroska,webm, from 'G:\Аниме\Онгоинги\!_35_Лето_2024\JamClub\Почему все забыли мой мир\JamClub_Naze_Boku_no_Sekai_o_Dare_mo_Oboeteinai_no_ka_12_1080p_HEVC.mkv':
  Metadata:
    COMPATIBLE_BRANDS: isomiso2avc1mp41
    MAJOR_BRAND     : isom
    MINOR_VERSION   : 512
    ENCODER         : Lavf61.7.100
  Duration: 00:24:02.37, start: -0.001000, bitrate: 1492 kb/s
  Stream #0:0: Video: hevc (Main 10), yuv420p10le(tv, bt709, progressive), 1920x1080 [SAR 1:1 DAR 16:9], 23.98 fps, 23.98 tbr, 1k tbn (default)
      Metadata:
        HANDLER_NAME    : VideoHandler
        VENDOR_ID       : [0][0][0][0]
        ENCODER         : Lavc61.19.100 libx265
        BPS             : 1295197
        DURATION        : 00:24:02.232708333
        NUMBER_OF_FRAMES: 34580
        NUMBER_OF_BYTES : 233496869
        _STATISTICS_WRITING_APP: mkvpropedit v66.0.0 ('Josie') 64-bit
        _STATISTICS_WRITING_DATE_UTC: 2025-04-30 13:22:26
        _STATISTICS_TAGS: BPS DURATION NUMBER_OF_FRAMES NUMBER_OF_BYTES
  Stream #0:1(eng): Audio: aac (LC), 48000 Hz, stereo, fltp (default)
      Metadata:
        HANDLER_NAME    : SoundHandler
        VENDOR_ID       : [0][0][0][0]
        ENCODER         : Lavc61.19.100 aac
        BPS             : 193098
        DURATION        : 00:24:02.328000000
        NUMBER_OF_FRAMES: 67610
        NUMBER_OF_BYTES : 34813971
        _STATISTICS_WRITING_APP: mkvpropedit v66.0.0 ('Josie') 64-bit
        _STATISTICS_WRITING_DATE_UTC: 2025-04-30 13:22:26
        _STATISTICS_TAGS: BPS DURATION NUMBER_OF_FRAMES NUMBER_OF_BYTES
Input #1, mov,mp4,m4a,3gp,3g2,mj2, from 'G:\Аниме\Онгоинги\!_35_Лето_2024\JamClub\Почему все забыли мой мир\JamClub_Naze_Boku_no_Sekai_o_Dare_mo_Oboeteinai_no_ka_12_1080p.mp4':
  Metadata:
    major_brand     : isom
    minor_version   : 512
    compatible_brands: isomiso2avc1mp41
    encoder         : Lavf60.16.100
  Duration: 00:24:02.35, start: 0.000000, bitrate: 4382 kb/s
  Stream #1:0[0x1](und): Video: h264 (High) (avc1 / 0x31637661), yuv420p(progressive), 1920x1080 [SAR 1:1 DAR 16:9], 4184 kb/s, 23.98 fps, 23.98 tbr, 90k tbn (default)
      Metadata:
        handler_name    : VideoHandler
        vendor_id       : [0][0][0][0]
  Stream #1:1[0x2](eng): Audio: aac (LC) (mp4a / 0x6134706D), 48000 Hz, stereo, fltp, 191 kb/s (default)
      Metadata:
        handler_name    : SoundHandler
        vendor_id       : [0][0][0][0]
Stream mapping:
  Stream #0:0 (hevc) -> settb:default
  Stream #1:0 (h264) -> settb:default
  psnr:default -> Stream #0:0 (wrapped_avframe)
  Stream #0:1 -> #0:1 (aac (native) -> pcm_s16le (native))
Output #0, null, to 'pipe:':
  Metadata:
    COMPATIBLE_BRANDS: isomiso2avc1mp41
    MAJOR_BRAND     : isom
    MINOR_VERSION   : 512
    encoder         : Lavf61.7.100
  Stream #0:0: Video: wrapped_avframe, yuv420p10le(tv, bt709, progressive), 1920x1080 [SAR 1:1 DAR 16:9], q=2-31, 200 kb/s, 23.98 fps, 23.98 tbn
      Metadata:
        encoder         : Lavc61.19.100 wrapped_avframe
  Stream #0:1(eng): Audio: pcm_s16le, 48000 Hz, stereo, s16, 1536 kb/s (default)
      Metadata:
        HANDLER_NAME    : SoundHandler
        VENDOR_ID       : [0][0][0][0]
        _STATISTICS_TAGS: BPS DURATION NUMBER_OF_FRAMES NUMBER_OF_BYTES
        BPS             : 193098
        DURATION        : 00:24:02.328000000
        NUMBER_OF_FRAMES: 67610
        NUMBER_OF_BYTES : 34813971
        _STATISTICS_WRITING_APP: mkvpropedit v66.0.0 ('Josie') 64-bit
        _STATISTICS_WRITING_DATE_UTC: 2025-04-30 13:22:26
        encoder         : Lavc61.19.100 pcm_s16le
frame=  113 fps=0.0 q=-0.0 size=N/A time=00:00:04.71 bitrate=N/A speed=9.22x    frame=  269 fps=264 q=-0.0 size=N/A time=00:00:11.21 bitrate=N/A speed=  11x    frame=  473 fps=307 q=-0.0 size=N/A time=00:00:19.72 bitrate=N/A speed=12.8x    frame=  725 fps=352 q=-0.0 size=N/A time=00:00:30.23 bitrate=N/A speed=14.7x    frame=  979 fps=382 q=-0.0 size=N/A time=00:00:40.83 bitrate=N/A speed=15.9x    frame= 1197 fps=387 q=-0.0 size=N/A time=00:00:49.92 bitrate=N/A speed=16.2x    frame= 1421 fps=394 q=-0.0 size=N/A time=00:00:59.26 bitrate=N/A speed=16.4x    frame= 1651 fps=401 q=-0.0 size=N/A time=00:01:08.86 bitrate=N/A speed=16.7x    frame= 1886 fps=407 q=-0.0 size=N/A time=00:01:18.66 bitrate=N/A speed=  17x    frame= 2154 fps=418 q=-0.0 size=N/A time=00:01:29.83 bitrate=N/A speed=17.4x    frame= 2340 fps=413 q=-0.0 size=N/A time=00:01:37.59 bitrate=N/A speed=17.2x    frame= 2503 fps=405 q=-0.0 size=N/A time=00:01:44.39 bitrate=N/A speed=16.9x    frame= 2695 fps=402 q=-0.0 size=N/A time=00:01:52.40 bitrate=N/A speed=16.8x    frame= 2912 fps=404 q=-0.0 size=N/A time=00:02:01.45 bitrate=N/A speed=16.8x    frame= 3078 fps=399 q=-0.0 size=N/A time=00:02:08.37 bitrate=N/A speed=16.6x    frame= 3276 fps=397 q=-0.0 size=N/A time=00:02:16.63 bitrate=N/A speed=16.6x    frame= 3467 fps=396 q=-0.0 size=N/A time=00:02:24.60 bitrate=N/A speed=16.5x    frame= 3623 fps=391 q=-0.0 size=N/A time=00:02:31.10 bitrate=N/A speed=16.3x    frame= 3818 fps=390 q=-0.0 size=N/A time=00:02:39.24 bitrate=N/A speed=16.3x    frame= 3988 fps=387 q=-0.0 size=N/A time=00:02:46.33 bitrate=N/A speed=16.1x    frame= 4180 fps=386 q=-0.0 size=N/A time=00:02:54.34 bitrate=N/A speed=16.1x    frame= 4395 fps=387 q=-0.0 size=N/A time=00:03:03.30 bitrate=N/A speed=16.2x    frame= 4646 fps=392 q=-0.0 size=N/A time=00:03:13.77 bitrate=N/A speed=16.3x    frame= 4866 fps=393 q=-0.0 size=N/A time=00:03:22.95 bitrate=N/A speed=16.4x    frame= 5100 fps=396 q=-0.0 size=N/A time=00:03:32.71 bitrate=N/A speed=16.5x    frame= 5298 fps=395 q=-0.0 size=N/A time=00:03:40.97 bitrate=N/A speed=16.5x    frame= 5556 fps=399 q=-0.0 size=N/A time=00:03:51.73 bitrate=N/A speed=16.6x    frame= 5783 fps=401 q=-0.0 size=N/A time=00:04:01.19 bitrate=N/A speed=16.7x    frame= 6020 fps=403 q=-0.0 size=N/A time=00:04:11.08 bitrate=N/A speed=16.8x    frame= 6283 fps=406 q=-0.0 size=N/A time=00:04:22.05 bitrate=N/A speed=16.9x    frame= 6520 fps=408 q=-0.0 size=N/A time=00:04:31.93 bitrate=N/A speed=  17x    frame= 6797 fps=412 q=-0.0 size=N/A time=00:04:43.49 bitrate=N/A speed=17.2x    frame= 7070 fps=416 q=-0.0 size=N/A time=00:04:54.87 bitrate=N/A speed=17.3x    frame= 7348 fps=419 q=-0.0 size=N/A time=00:05:06.47 bitrate=N/A speed=17.5x    frame= 7611 fps=422 q=-0.0 size=N/A time=00:05:17.44 bitrate=N/A speed=17.6x    frame= 7861 fps=423 q=-0.0 size=N/A time=00:05:27.86 bitrate=N/A speed=17.7x    frame= 8110 fps=425 q=-0.0 size=N/A time=00:05:38.25 bitrate=N/A speed=17.7x    frame= 8347 fps=426 q=-0.0 size=N/A time=00:05:48.13 bitrate=N/A speed=17.8x    frame= 8588 fps=427 q=-0.0 size=N/A time=00:05:58.19 bitrate=N/A speed=17.8x    frame= 8871 fps=430 q=-0.0 size=N/A time=00:06:09.99 bitrate=N/A speed=17.9x    frame= 9080 fps=429 q=-0.0 size=N/A time=00:06:18.71 bitrate=N/A speed=17.9x    frame= 9315 fps=430 q=-0.0 size=N/A time=00:06:28.51 bitrate=N/A speed=17.9x    frame= 9558 fps=431 q=-0.0 size=N/A time=00:06:38.64 bitrate=N/A speed=  18x    frame= 9764 fps=430 q=-0.0 size=N/A time=00:06:47.24 bitrate=N/A speed=  18x    frame= 9987 fps=431 q=-0.0 size=N/A time=00:06:56.54 bitrate=N/A speed=  18x    frame=10177 fps=429 q=-0.0 size=N/A time=00:07:04.46 bitrate=N/A speed=17.9x    frame=10387 fps=429 q=-0.0 size=N/A time=00:07:13.22 bitrate=N/A speed=17.9x    frame=10602 fps=428 q=-0.0 size=N/A time=00:07:22.19 bitrate=N/A speed=17.9x    frame=10846 fps=429 q=-0.0 size=N/A time=00:07:32.36 bitrate=N/A speed=17.9x    frame=11033 fps=428 q=-0.0 size=N/A time=00:07:40.16 bitrate=N/A speed=17.8x    frame=11267 fps=428 q=-0.0 size=N/A time=00:07:49.92 bitrate=N/A speed=17.9x    frame=11498 fps=429 q=-0.0 size=N/A time=00:07:59.56 bitrate=N/A speed=17.9x    frame=11736 fps=430 q=-0.0 size=N/A time=00:08:09.48 bitrate=N/A speed=17.9x    frame=11991 fps=431 q=-0.0 size=N/A time=00:08:20.12 bitrate=N/A speed=  18x    frame=12228 fps=431 q=-0.0 size=N/A time=00:08:30.00 bitrate=N/A speed=  18x    frame=12475 fps=432 q=-0.0 size=N/A time=00:08:40.31 bitrate=N/A speed=  18x    frame=12752 fps=434 q=-0.0 size=N/A time=00:08:51.86 bitrate=N/A speed=18.1x    frame=13006 fps=435 q=-0.0 size=N/A time=00:09:02.45 bitrate=N/A speed=18.1x    frame=13213 fps=434 q=-0.0 size=N/A time=00:09:11.09 bitrate=N/A speed=18.1x    frame=13407 fps=433 q=-0.0 size=N/A time=00:09:19.18 bitrate=N/A speed=18.1x    frame=13629 fps=433 q=-0.0 size=N/A time=00:09:28.44 bitrate=N/A speed=18.1x    frame=13843 fps=433 q=-0.0 size=N/A time=00:09:37.36 bitrate=N/A speed=18.1x    frame=14082 fps=434 q=-0.0 size=N/A time=00:09:47.33 bitrate=N/A speed=18.1x    frame=14324 fps=434 q=-0.0 size=N/A time=00:09:57.43 bitrate=N/A speed=18.1x    frame=14568 fps=435 q=-0.0 size=N/A time=00:10:07.60 bitrate=N/A speed=18.1x    frame=14777 fps=434 q=-0.0 size=N/A time=00:10:16.32 bitrate=N/A speed=18.1x    frame=15044 fps=436 q=-0.0 size=N/A time=00:10:27.46 bitrate=N/A speed=18.2x    frame=15322 fps=437 q=-0.0 size=N/A time=00:10:39.05 bitrate=N/A speed=18.2x    frame=15588 fps=438 q=-0.0 size=N/A time=00:10:50.14 bitrate=N/A speed=18.3x    frame=15844 fps=439 q=-0.0 size=N/A time=00:11:00.82 bitrate=N/A speed=18.3x    frame=16049 fps=439 q=-0.0 size=N/A time=00:11:09.37 bitrate=N/A speed=18.3x    frame=16259 fps=438 q=-0.0 size=N/A time=00:11:18.13 bitrate=N/A speed=18.3x    frame=16443 fps=437 q=-0.0 size=N/A time=00:11:25.81 bitrate=N/A speed=18.2x    frame=16647 fps=436 q=-0.0 size=N/A time=00:11:34.31 bitrate=N/A speed=18.2x    frame=16886 fps=437 q=-0.0 size=N/A time=00:11:44.28 bitrate=N/A speed=18.2x    frame=17120 fps=437 q=-0.0 size=N/A time=00:11:54.04 bitrate=N/A speed=18.2x    frame=17391 fps=438 q=-0.0 size=N/A time=00:12:05.34 bitrate=N/A speed=18.3x    frame=17669 fps=439 q=-0.0 size=N/A time=00:12:16.94 bitrate=N/A speed=18.3x    frame=17944 fps=441 q=-0.0 size=N/A time=00:12:28.41 bitrate=N/A speed=18.4x    frame=18226 fps=442 q=-0.0 size=N/A time=00:12:40.17 bitrate=N/A speed=18.4x    frame=18448 fps=442 q=-0.0 size=N/A time=00:12:49.43 bitrate=N/A speed=18.4x    frame=18701 fps=442 q=-0.0 size=N/A time=00:12:59.98 bitrate=N/A speed=18.4x    frame=18945 fps=443 q=-0.0 size=N/A time=00:13:10.16 bitrate=N/A speed=18.5x    frame=19201 fps=443 q=-0.0 size=N/A time=00:13:20.84 bitrate=N/A speed=18.5x    frame=19469 fps=444 q=-0.0 size=N/A time=00:13:32.01 bitrate=N/A speed=18.5x    frame=19737 fps=445 q=-0.0 size=N/A time=00:13:43.19 bitrate=N/A speed=18.6x    frame=19996 fps=446 q=-0.0 size=N/A time=00:13:53.99 bitrate=N/A speed=18.6x    frame=20219 fps=446 q=-0.0 size=N/A time=00:14:03.30 bitrate=N/A speed=18.6x    frame=20476 fps=446 q=-0.0 size=N/A time=00:14:14.01 bitrate=N/A speed=18.6x    frame=20716 fps=446 q=-0.0 size=N/A time=00:14:24.02 bitrate=N/A speed=18.6x    frame=20931 fps=446 q=-0.0 size=N/A time=00:14:32.99 bitrate=N/A speed=18.6x    frame=21171 fps=446 q=-0.0 size=N/A time=00:14:43.00 bitrate=N/A speed=18.6x    frame=21376 fps=446 q=-0.0 size=N/A time=00:14:51.55 bitrate=N/A speed=18.6x    frame=21599 fps=446 q=-0.0 size=N/A time=00:15:00.85 bitrate=N/A speed=18.6x    frame=21837 fps=446 q=-0.0 size=N/A time=00:15:10.78 bitrate=N/A speed=18.6x    frame=22088 fps=446 q=-0.0 size=N/A time=00:15:21.25 bitrate=N/A speed=18.6x    frame=22297 fps=446 q=-0.0 size=N/A time=00:15:29.97 bitrate=N/A speed=18.6x    frame=22528 fps=446 q=-0.0 size=N/A time=00:15:39.60 bitrate=N/A speed=18.6x    frame=22721 fps=445 q=-0.0 size=N/A time=00:15:47.65 bitrate=N/A speed=18.6x    frame=22960 fps=445 q=-0.0 size=N/A time=00:15:57.62 bitrate=N/A speed=18.6x    frame=23214 fps=446 q=-0.0 size=N/A time=00:16:08.21 bitrate=N/A speed=18.6x    frame=23429 fps=445 q=-0.0 size=N/A time=00:16:17.18 bitrate=N/A speed=18.6x    frame=23620 fps=445 q=-0.0 size=N/A time=00:16:25.15 bitrate=N/A speed=18.6x    frame=23868 fps=445 q=-0.0 size=N/A time=00:16:35.49 bitrate=N/A speed=18.6x    frame=24084 fps=445 q=-0.0 size=N/A time=00:16:44.50 bitrate=N/A speed=18.6x    frame=24326 fps=445 q=-0.0 size=N/A time=00:16:54.59 bitrate=N/A speed=18.6x    frame=24587 fps=446 q=-0.0 size=N/A time=00:17:05.48 bitrate=N/A speed=18.6x    frame=24838 fps=446 q=-0.0 size=N/A time=00:17:15.95 bitrate=N/A speed=18.6x    frame=25111 fps=447 q=-0.0 size=N/A time=00:17:27.33 bitrate=N/A speed=18.6x    frame=25390 fps=448 q=-0.0 size=N/A time=00:17:38.97 bitrate=N/A speed=18.7x    frame=25668 fps=448 q=-0.0 size=N/A time=00:17:50.56 bitrate=N/A speed=18.7x    frame=25953 fps=449 q=-0.0 size=N/A time=00:18:02.45 bitrate=N/A speed=18.7x    frame=26233 fps=450 q=-0.0 size=N/A time=00:18:14.13 bitrate=N/A speed=18.8x    frame=26478 fps=450 q=-0.0 size=N/A time=00:18:24.35 bitrate=N/A speed=18.8x    frame=26742 fps=451 q=-0.0 size=N/A time=00:18:35.36 bitrate=N/A speed=18.8x    frame=27022 fps=452 q=-0.0 size=N/A time=00:18:47.04 bitrate=N/A speed=18.8x    frame=27302 fps=452 q=-0.0 size=N/A time=00:18:58.72 bitrate=N/A speed=18.9x    frame=27572 fps=453 q=-0.0 size=N/A time=00:19:09.98 bitrate=N/A speed=18.9x    frame=27851 fps=454 q=-0.0 size=N/A time=00:19:21.61 bitrate=N/A speed=18.9x    frame=28099 fps=454 q=-0.0 size=N/A time=00:19:31.96 bitrate=N/A speed=18.9x    frame=28359 fps=455 q=-0.0 size=N/A time=00:19:42.80 bitrate=N/A speed=  19x    frame=28632 fps=455 q=-0.0 size=N/A time=00:19:54.19 bitrate=N/A speed=  19x    frame=28895 fps=456 q=-0.0 size=N/A time=00:20:05.16 bitrate=N/A speed=  19x    frame=29180 fps=456 q=-0.0 size=N/A time=00:20:17.04 bitrate=N/A speed=  19x    frame=29439 fps=457 q=-0.0 size=N/A time=00:20:27.85 bitrate=N/A speed=  19x    frame=29732 fps=458 q=-0.0 size=N/A time=00:20:40.07 bitrate=N/A speed=19.1x    frame=30000 fps=458 q=-0.0 size=N/A time=00:20:51.25 bitrate=N/A speed=19.1x    frame=30287 fps=459 q=-0.0 size=N/A time=00:21:03.22 bitrate=N/A speed=19.1x    frame=30478 fps=458 q=-0.0 size=N/A time=00:21:11.18 bitrate=N/A speed=19.1x    frame=30723 fps=458 q=-0.0 size=N/A time=00:21:21.40 bitrate=N/A speed=19.1x    frame=30971 fps=458 q=-0.0 size=N/A time=00:21:31.74 bitrate=N/A speed=19.1x    frame=31251 fps=459 q=-0.0 size=N/A time=00:21:43.42 bitrate=N/A speed=19.1x    frame=31499 fps=459 q=-0.0 size=N/A time=00:21:53.77 bitrate=N/A speed=19.2x    frame=31771 fps=460 q=-0.0 size=N/A time=00:22:05.11 bitrate=N/A speed=19.2x    frame=32029 fps=460 q=-0.0 size=N/A time=00:22:15.87 bitrate=N/A speed=19.2x    frame=32263 fps=460 q=-0.0 size=N/A time=00:22:25.63 bitrate=N/A speed=19.2x    frame=32469 fps=460 q=-0.0 size=N/A time=00:22:34.22 bitrate=N/A speed=19.2x    frame=32744 fps=460 q=-0.0 size=N/A time=00:22:45.69 bitrate=N/A speed=19.2x    frame=32985 fps=460 q=-0.0 size=N/A time=00:22:55.74 bitrate=N/A speed=19.2x    frame=33224 fps=460 q=-0.0 size=N/A time=00:23:05.71 bitrate=N/A speed=19.2x    frame=33427 fps=460 q=-0.0 size=N/A time=00:23:14.18 bitrate=N/A speed=19.2x    frame=33589 fps=459 q=-0.0 size=N/A time=00:23:20.94 bitrate=N/A speed=19.1x    frame=33744 fps=458 q=-0.0 size=N/A time=00:23:27.40 bitrate=N/A speed=19.1x    frame=33916 fps=457 q=-0.0 size=N/A time=00:23:34.57 bitrate=N/A speed=19.1x    frame=34101 fps=456 q=-0.0 size=N/A time=00:23:42.29 bitrate=N/A speed=  19x    frame=34277 fps=455 q=-0.0 size=N/A time=00:23:49.63 bitrate=N/A speed=  19x    frame=34438 fps=454 q=-0.0 size=N/A time=00:23:56.35 bitrate=N/A speed=18.9x    [Parsed_psnr_10 @ 000001daaa559180] PSNR y:48.020669 u:49.980639 v:50.542141 average:48.645182 min:34.916233 max:inf
[out#0/null @ 000001daa9ccc100] video:14858KiB audio:270440KiB subtitle:0KiB other streams:0KiB global headers:0KiB muxing overhead: unknown
frame=34579 fps=454 q=-0.0 Lsize=N/A time=00:24:02.23 bitrate=N/A speed=18.9x    
